<svg id="sw-js-blob-svg" viewBox="0 0 100 100" xmlns="http://www.w3.org/2000/svg">                    <defs>                         <linearGradient id="sw-gradient" x1="0" x2="1" y1="1" y2="0">                            <stop id="stop1" stop-color="rgba(248, 117, 55, 1)" offset="0%" data-darkreader-inline-stopcolor="" style="--darkreader-inline-stopcolor: #a93a06;"></stop>                            <stop id="stop2" stop-color="rgba(251, 168, 31, 1)" offset="100%" data-darkreader-inline-stopcolor="" style="--darkreader-inline-stopcolor: #b97403;"></stop>                        </linearGradient>                    </defs>                <path fill="url(#sw-gradient)" d="M22.4,-35.1C29.3,-34.7,35.6,-29.4,39.3,-22.7C43.1,-16.1,44.4,-8,42.8,-0.9C41.2,6.2,36.7,12.4,32.1,17.6C27.5,22.8,22.8,27.1,17.4,31.2C12.1,35.3,6,39.3,0.6,38.3C-4.9,37.3,-9.8,31.4,-16.1,27.8C-22.4,24.3,-30.2,23.1,-34,18.9C-37.7,14.6,-37.4,7.3,-35.6,1C-33.8,-5.3,-30.6,-10.5,-26.7,-14.4C-22.7,-18.4,-18.2,-21,-13.6,-22.8C-9.1,-24.5,-4.5,-25.5,1.6,-28.2C7.7,-30.9,15.4,-35.5,22.4,-35.1Z" width="100%" height="100%" transform="translate(50 50)" stroke-width="0" style="transition: all 0.3s ease 0s;"></path>              </svg>